<?xml version="1.0" standalone="no"?>
<!DOCTYPE svg PUBLIC "-//W3C//DTD SVG 20010904//EN"
 "http://www.w3.org/TR/2001/REC-SVG-20010904/DTD/svg10.dtd">
<svg version="1.0" xmlns="http://www.w3.org/2000/svg"
 width="260.000000pt" height="260.000000pt" viewBox="0 0 260.000000 260.000000"
 preserveAspectRatio="xMidYMid meet">
<metadata>
Created by potrace 1.11, written by Peter Selinger 2001-2013
</metadata>
<g transform="translate(0.000000,260.000000) scale(0.100000,-0.100000)"
fill="#000000" stroke="none">
<path d="M904 1836 c-34 -8 -85 -26 -115 -41 -98 -49 -89 6 -89 -541 0 -482 0
-483 21 -495 18 -9 34 -5 98 25 143 66 273 67 409 0 l74 -36 71 36 c130 65
269 66 406 1 84 -40 84 -40 105 -19 14 14 16 72 16 493 0 541 9 487 -87 535
-127 63 -275 71 -413 21 -94 -34 -109 -34 -195 -1 -86 34 -210 43 -301 22z"/>
</g>
</svg>
