<svg width="24" height="24" viewBox="0 0 24 24" fill="none" xmlns="http://www.w3.org/2000/svg">
<path d="M22.0373 2.94563C20.7959 1.61132 19.0565 0.852121 17.234 0.849307C15.4101 0.851417 13.6688 1.61022 12.4255 2.94477L12.0018 3.39252L11.578 2.94477C9.11101 0.289581 4.95863 0.137097 2.30343 2.60412C2.18578 2.71348 2.07215 2.82707 1.96278 2.94477C-0.654261 5.76758 -0.654261 10.1301 1.96278 12.9529L11.3791 22.883C11.7048 23.2269 12.2477 23.2416 12.5916 22.9158C12.6029 22.9052 12.6139 22.8942 12.6245 22.883L22.0374 12.9529C24.6542 10.1304 24.6542 5.76813 22.0373 2.94563Z" fill="#16C5A5"/>
</svg>
