<svg width="30" height="30" viewBox="0 0 30 30" fill="none" xmlns="http://www.w3.org/2000/svg">
<g clip-path="url(#clip0)">
<path d="M15.3625 26.8737C20.025 26.8737 26.5375 26.9862 28.9063 22.2475C29.8 20.4362 30 18.345 30 16.3725H29.9988C29.9988 13.7812 29.28 11.3137 27.5613 9.30875C28.5438 6.355 27.8863 4.61375 27.13 3.12375C24.33 3.12375 22.5175 3.64875 20.3925 5.30125C16.96 4.485 13.0725 4.5875 9.82377 5.35125C7.66752 3.68125 5.85502 3.125 3.02377 3.125C2.24752 4.67125 1.60377 6.37375 2.59377 9.34625C-0.751226 13.2 -0.488726 18.8037 1.26252 22.2487C3.72502 27.0425 10.625 26.8737 15.3625 26.8737ZM8.75127 14.3862C9.93877 14.3862 11.0825 14.5962 12.2513 14.7575C16.5238 15.4075 18.77 14.3862 21.3888 14.3862C24.3125 14.3862 25.9825 16.78 25.9825 19.495C25.9825 24.9312 20.9638 25.76 16.57 25.76C13.5463 25.5562 4.15752 26.98 4.15752 19.495C4.15752 16.78 5.82502 14.3862 8.75127 14.3862Z" fill="#111111"/>
<path d="M20.8188 22.9037C22.4313 22.9037 23.1125 20.7887 23.1125 19.495C23.1125 18.2012 22.4313 16.0862 20.8188 16.0862C19.2063 16.0862 18.525 18.2012 18.525 19.495C18.525 20.7887 19.2063 22.9037 20.8188 22.9037Z" fill="#111111"/>
<path d="M9.33751 22.9037C10.95 22.9037 11.6313 20.7887 11.6313 19.495C11.6313 18.2012 10.9488 16.0875 9.33751 16.0875C7.72626 16.0875 7.04376 18.2025 7.04376 19.4962C7.04376 20.79 7.72501 22.9037 9.33751 22.9037Z" fill="#111111"/>
</g>
<defs>
<clipPath id="clip0">
<rect width="30" height="30" fill="white"/>
</clipPath>
</defs>
</svg>
