<svg width="250" height="79" viewBox="0 0 250 79" fill="none" xmlns="http://www.w3.org/2000/svg">
<path d="M128.95 57V35.1H128.6L121.25 57H115.35L108 35.1H107.65V57H99.55V22.6H111.5L118.3 42.45H118.65L125.4 22.6H137.3V57H128.95ZM152.373 57V45.3L140.923 22.6H149.923L156.673 36.8H157.023L163.723 22.6H172.523L161.073 45.3V57H152.373ZM176.261 57V22.6H184.961V49.6H198.611V57H176.261ZM203.31 57V22.6H212.01V57H203.31ZM219.23 22.6H236.53C239.897 22.6 242.413 23.3167 244.08 24.75C245.747 26.1833 246.58 28.35 246.58 31.25C246.58 33.6833 246.097 35.5333 245.13 36.8C244.197 38.0333 242.68 38.8833 240.58 39.35V39.55C242.847 40.05 244.463 40.9 245.43 42.1C246.397 43.3 246.88 45.2167 246.88 47.85C246.88 50.8833 246.063 53.1667 244.43 54.7C242.83 56.2333 240.18 57 236.48 57H219.23V22.6ZM233.38 36.3C234.613 36.3 235.53 36.2167 236.13 36.05C236.73 35.85 237.147 35.5167 237.38 35.05C237.613 34.5833 237.73 33.8833 237.73 32.95C237.73 31.9833 237.613 31.2667 237.38 30.8C237.18 30.3333 236.78 30.0167 236.18 29.85C235.613 29.6833 234.68 29.6 233.38 29.6H227.88V36.3H233.38ZM233.63 50C234.897 50 235.83 49.9167 236.43 49.75C237.03 49.55 237.447 49.2167 237.68 48.75C237.913 48.2833 238.03 47.55 238.03 46.55C238.03 45.5167 237.913 44.75 237.68 44.25C237.48 43.75 237.063 43.4167 236.43 43.25C235.83 43.05 234.897 42.95 233.63 42.95H227.88V50H233.63Z" fill="#FAFAFA"/>
<g clip-path="url(#clip0)">
<path d="M70.7676 11.7693C60.3266 4.7874 46.8045 4.4202 36 10.8249C25.1953 4.4202 11.6733 4.7874 1.23236 11.7693C0.462277 12.283 -0.000162217 13.1475 4.26857e-08 14.0732V68.9509C-0.000162217 70.4804 1.23934 71.7204 2.76879 71.7205C3.31593 71.7205 3.8509 71.5586 4.3062 71.2548C13.4313 65.1489 25.3379 65.1489 34.4631 71.2548C34.4991 71.2798 34.5406 71.2853 34.5767 71.3074C34.6127 71.3296 34.6515 71.3683 34.693 71.3932C34.7897 71.4346 34.8887 71.4706 34.9893 71.5013C35.0899 71.5471 35.1936 71.5858 35.2994 71.6177C35.4524 71.653 35.608 71.6762 35.7646 71.6869C35.8449 71.6869 35.9197 71.7202 36 71.7202C36.0222 71.7202 36.0443 71.7202 36.0693 71.7202C36.1623 71.7134 36.2546 71.7014 36.3463 71.6842C36.4865 71.6701 36.6253 71.6451 36.7616 71.6094C36.8559 71.5785 36.9484 71.5425 37.0386 71.5013C37.1245 71.4653 37.2158 71.446 37.2989 71.4017C37.3377 71.3795 37.3682 71.3464 37.4069 71.3214C37.4457 71.2964 37.49 71.2881 37.5288 71.2633C46.6539 65.1573 58.5605 65.1573 67.6857 71.2633C68.9549 72.1168 70.6755 71.7797 71.529 70.5106C71.8389 70.0497 72.0031 69.5063 72.0002 68.9509V14.0732C72 13.1475 71.5376 12.283 70.7676 11.7693Z" fill="#FAFAFA"/>
</g>
<defs>
<clipPath id="clip0">
<rect width="72" height="72" fill="white" transform="translate(0 3)"/>
</clipPath>
</defs>
</svg>
