<svg width="24" height="24" viewBox="0 0 24 24" fill="none" xmlns="http://www.w3.org/2000/svg">
<path d="M22.2856 3.42858H16.2857V2.57142C16.2857 1.15126 15.1344 0 13.7142 0H10.2857C8.86549 0 7.71423 1.15126 7.71423 2.57142V3.42858H1.71421C1.24081 3.42858 0.857056 3.81234 0.857056 4.28574C0.857056 4.75914 1.24086 5.14285 1.71421 5.14285H2.6459L4.28564 23.2208C4.32607 23.6635 4.69827 24.0018 5.1428 24H18.8571C19.3016 24.0018 19.6738 23.6635 19.7143 23.2208L21.3539 5.14285H22.2857C22.7591 5.14285 23.1428 4.75909 23.1428 4.28569C23.1428 3.81229 22.759 3.42858 22.2856 3.42858ZM9.42849 2.57142C9.42849 2.09802 9.81225 1.71427 10.2857 1.71427H13.7142C14.1876 1.71427 14.5714 2.09802 14.5714 2.57142V3.42858H9.42854V2.57142H9.42849ZM8.63653 20.5711C8.63507 20.5712 8.63366 20.5713 8.63221 20.5714H8.57134C8.12073 20.5725 7.74617 20.2245 7.71418 19.7751L6.85702 7.77514C6.82342 7.30174 7.1799 6.89076 7.65331 6.85716C8.12671 6.82356 8.53769 7.18005 8.57129 7.65345L9.42844 19.6534C9.46325 20.1255 9.10867 20.5364 8.63653 20.5711ZM12.8571 19.7142C12.8571 20.1876 12.4733 20.5714 11.9999 20.5714C11.5265 20.5714 11.1428 20.1876 11.1428 19.7142V7.71427C11.1428 7.24087 11.5265 6.85711 11.9999 6.85711C12.4733 6.85711 12.8571 7.24087 12.8571 7.71427V19.7142ZM17.1428 7.77514L16.2856 19.7751C16.2536 20.2245 15.8791 20.5725 15.4285 20.5714H15.3667C14.8945 20.5386 14.5383 20.1292 14.571 19.6569C14.5711 19.6558 14.5712 19.6546 14.5713 19.6534L15.4285 7.6534C15.4621 7.18 15.8731 6.82351 16.3465 6.85711C16.8199 6.89076 17.1764 7.30174 17.1428 7.77514Z" fill="#16C5A5"/>
</svg>
